<svg width="379" height="141" viewBox="0 0 379 141" fill="none" xmlns="http://www.w3.org/2000/svg">
<rect width="379" height="141" fill="white"/>
<path d="M119.6 97V90.1L144.35 52.075H119.75V44.5H154.775V51.4L129.875 89.425H154.925V97H119.6ZM177.454 97.9C173.854 97.9 170.604 97.075 167.704 95.425C164.854 93.725 162.604 91.4 160.954 88.45C159.354 85.45 158.554 82.025 158.554 78.175C158.554 74.225 159.379 70.775 161.029 67.825C162.679 64.825 164.929 62.5 167.779 60.85C170.679 59.15 173.929 58.3 177.529 58.3C181.129 58.3 184.354 59.15 187.204 60.85C190.104 62.5 192.354 64.8 193.954 67.75C195.604 70.7 196.429 74.15 196.429 78.1C196.429 82.05 195.604 85.5 193.954 88.45C192.304 91.4 190.029 93.725 187.129 95.425C184.279 97.075 181.054 97.9 177.454 97.9ZM177.454 90.175C179.254 90.175 180.879 89.725 182.329 88.825C183.829 87.925 185.029 86.575 185.929 84.775C186.829 82.975 187.279 80.75 187.279 78.1C187.279 75.45 186.829 73.25 185.929 71.5C185.079 69.7 183.904 68.35 182.404 67.45C180.954 66.55 179.329 66.1 177.529 66.1C175.779 66.1 174.154 66.55 172.654 67.45C171.154 68.35 169.954 69.7 169.054 71.5C168.154 73.25 167.704 75.45 167.704 78.1C167.704 80.75 168.154 82.975 169.054 84.775C169.954 86.575 171.129 87.925 172.579 88.825C174.079 89.725 175.704 90.175 177.454 90.175ZM210.008 97L196.058 59.2H205.508L215.483 88.45L225.458 59.2H234.758L220.808 97H210.008ZM253.53 97.9C249.83 97.9 246.505 97.075 243.555 95.425C240.655 93.725 238.38 91.4 236.73 88.45C235.13 85.45 234.33 82.05 234.33 78.25C234.33 74.3 235.13 70.85 236.73 67.9C238.38 64.9 240.655 62.55 243.555 60.85C246.505 59.15 249.855 58.3 253.605 58.3C258.305 58.3 262.255 59.55 265.455 62.05C268.655 64.5 270.705 67.875 271.605 72.175H262.155C261.655 70.275 260.605 68.775 259.005 67.675C257.455 66.575 255.605 66.025 253.455 66.025C251.605 66.025 249.905 66.5 248.355 67.45C246.855 68.4 245.655 69.775 244.755 71.575C243.905 73.375 243.48 75.55 243.48 78.1C243.48 80.05 243.73 81.775 244.23 83.275C244.73 84.775 245.43 86.05 246.33 87.1C247.28 88.1 248.355 88.875 249.555 89.425C250.755 89.975 252.055 90.25 253.455 90.25C254.905 90.25 256.205 90.025 257.355 89.575C258.555 89.075 259.555 88.35 260.355 87.4C261.205 86.45 261.805 85.325 262.155 84.025H271.605C270.705 88.225 268.655 91.6 265.455 94.15C262.255 96.65 258.28 97.9 253.53 97.9ZM290.558 97.9C287.508 97.9 284.883 97.3 282.683 96.1C280.533 94.85 278.883 93 277.733 90.55C276.583 88.05 276.008 84.975 276.008 81.325V59.2H285.008V80.425C285.008 83.675 285.683 86.15 287.033 87.85C288.433 89.5 290.533 90.325 293.333 90.325C295.133 90.325 296.733 89.9 298.133 89.05C299.583 88.2 300.708 86.975 301.508 85.375C302.358 83.725 302.783 81.725 302.783 79.375V59.2H311.783V97H303.833L303.158 90.7C302.008 92.9 300.333 94.65 298.133 95.95C295.983 97.25 293.458 97.9 290.558 97.9ZM318.046 97V59.2H326.071L326.896 66.25C327.796 64.6 328.921 63.2 330.271 62.05C331.621 60.85 333.196 59.925 334.996 59.275C336.846 58.625 338.871 58.3 341.071 58.3V67.825H337.921C336.421 67.825 334.996 68.025 333.646 68.425C332.296 68.775 331.121 69.375 330.121 70.225C329.171 71.025 328.421 72.15 327.871 73.6C327.321 75 327.046 76.775 327.046 78.925V97H318.046Z" fill="#0E4B67"/>
<path d="M119.6 97V90.1L144.35 52.075H119.75V44.5H154.775V51.4L129.875 89.425H154.925V97H119.6ZM177.454 97.9C173.854 97.9 170.604 97.075 167.704 95.425C164.854 93.725 162.604 91.4 160.954 88.45C159.354 85.45 158.554 82.025 158.554 78.175C158.554 74.225 159.379 70.775 161.029 67.825C162.679 64.825 164.929 62.5 167.779 60.85C170.679 59.15 173.929 58.3 177.529 58.3C181.129 58.3 184.354 59.15 187.204 60.85C190.104 62.5 192.354 64.8 193.954 67.75C195.604 70.7 196.429 74.15 196.429 78.1C196.429 82.05 195.604 85.5 193.954 88.45C192.304 91.4 190.029 93.725 187.129 95.425C184.279 97.075 181.054 97.9 177.454 97.9ZM177.454 90.175C179.254 90.175 180.879 89.725 182.329 88.825C183.829 87.925 185.029 86.575 185.929 84.775C186.829 82.975 187.279 80.75 187.279 78.1C187.279 75.45 186.829 73.25 185.929 71.5C185.079 69.7 183.904 68.35 182.404 67.45C180.954 66.55 179.329 66.1 177.529 66.1C175.779 66.1 174.154 66.55 172.654 67.45C171.154 68.35 169.954 69.7 169.054 71.5C168.154 73.25 167.704 75.45 167.704 78.1C167.704 80.75 168.154 82.975 169.054 84.775C169.954 86.575 171.129 87.925 172.579 88.825C174.079 89.725 175.704 90.175 177.454 90.175ZM210.008 97L196.058 59.2H205.508L215.483 88.45L225.458 59.2H234.758L220.808 97H210.008ZM253.53 97.9C249.83 97.9 246.505 97.075 243.555 95.425C240.655 93.725 238.38 91.4 236.73 88.45C235.13 85.45 234.33 82.05 234.33 78.25C234.33 74.3 235.13 70.85 236.73 67.9C238.38 64.9 240.655 62.55 243.555 60.85C246.505 59.15 249.855 58.3 253.605 58.3C258.305 58.3 262.255 59.55 265.455 62.05C268.655 64.5 270.705 67.875 271.605 72.175H262.155C261.655 70.275 260.605 68.775 259.005 67.675C257.455 66.575 255.605 66.025 253.455 66.025C251.605 66.025 249.905 66.5 248.355 67.45C246.855 68.4 245.655 69.775 244.755 71.575C243.905 73.375 243.48 75.55 243.48 78.1C243.48 80.05 243.73 81.775 244.23 83.275C244.73 84.775 245.43 86.05 246.33 87.1C247.28 88.1 248.355 88.875 249.555 89.425C250.755 89.975 252.055 90.25 253.455 90.25C254.905 90.25 256.205 90.025 257.355 89.575C258.555 89.075 259.555 88.35 260.355 87.4C261.205 86.45 261.805 85.325 262.155 84.025H271.605C270.705 88.225 268.655 91.6 265.455 94.15C262.255 96.65 258.28 97.9 253.53 97.9ZM290.558 97.9C287.508 97.9 284.883 97.3 282.683 96.1C280.533 94.85 278.883 93 277.733 90.55C276.583 88.05 276.008 84.975 276.008 81.325V59.2H285.008V80.425C285.008 83.675 285.683 86.15 287.033 87.85C288.433 89.5 290.533 90.325 293.333 90.325C295.133 90.325 296.733 89.9 298.133 89.05C299.583 88.2 300.708 86.975 301.508 85.375C302.358 83.725 302.783 81.725 302.783 79.375V59.2H311.783V97H303.833L303.158 90.7C302.008 92.9 300.333 94.65 298.133 95.95C295.983 97.25 293.458 97.9 290.558 97.9ZM318.046 97V59.2H326.071L326.896 66.25C327.796 64.6 328.921 63.2 330.271 62.05C331.621 60.85 333.196 59.925 334.996 59.275C336.846 58.625 338.871 58.3 341.071 58.3V67.825H337.921C336.421 67.825 334.996 68.025 333.646 68.425C332.296 68.775 331.121 69.375 330.121 70.225C329.171 71.025 328.421 72.15 327.871 73.6C327.321 75 327.046 76.775 327.046 78.925V97H318.046Z" fill="#0E4B67"/>
<path d="M40.9164 29.042V68.0785L68.6375 68.4053L68.8666 39.1831C60.6774 30.2589 46.8209 28.7039 40.9164 29.042Z" fill="#20D0CE"/>
<path d="M49.3981 58.3053V39.7256C61.07 41.1376 66.4943 52.7004 67.7474 58.3053H49.3981Z" fill="white"/>
<path d="M104.76 58.3169H81.0435V67.7131H95.1824V86.2C89.3106 86.5716 83.0092 79.79 80.5925 76.3527V90.2875C87.8248 96.1587 99.7175 97.1311 104.76 96.8833V58.3169Z" fill="#125774"/>
<path d="M42.3064 79.8154C43.649 75.3563 47.116 70.6844 49.6222 68.1761L77.5725 68.2031V97.1875H40.1582C40.0388 95.6082 39.8717 91.7994 40.1582 89.1982C40.4446 86.5971 41.2323 82.5095 42.3064 79.8154Z" fill="#FF5A58"/>
<path d="M77.5725 68.2066H68.1249V29.9222H105.898C106.9 44.2658 100.291 54.7867 96.8295 58.3169H81.0435V57.4148C91.7846 53.4016 95.3356 43.9499 95.6937 39.7695H77.6129L77.5725 68.2066Z" fill="#F99928"/>
<path d="M68.1053 87.8056V68.8542C55.8605 70.4893 50.7704 82.1697 49.756 87.8056H68.1053Z" fill="white"/>
</svg>
